# xmcd CD database file
#
# Track frame offsets:
#	150
#	12120
#	26112
#	37345
#	50105
#	65810
#	77465
#	93972
#	108792
#	128330
#	146307
#	163937
#	182937
#	201655
#	216125
#	229822
#	243415
#	259875
#
# Disc length: 3678 seconds
#
# Revision: 0
# Processed by: cddbd v1.4PL0 Copyright (c) Steve Scherf et al.
# Submitted via: CDex 1.50
#
DISCID=050e5c12
DTITLE=The Masked Band - The Creole Connection
DYEAR=2001
DGENRE=Blues
TTITLE0=What you gonna do by yourself
TTITLE1=Went down to the river
TTITLE2=Madeleine
TTITLE3=Shake it down
TTITLE4=Games people play
TTITLE5=Creole music
TTITLE6=She is shaking her big butt
TTITLE7=Morning train
TTITLE8=Tante Delphine
TTITLE9=Every dog has his day
TTITLE10=Not going down the road
TTITLE11=La valse de mon grande pere
TTITLE12=Oh mom!
TTITLE13=Co-fe (Quoi faire)
TTITLE14=Cehere ici, chere las bas
TTITLE15=Pine tree two step
TTITLE16=Jolie Bassette
TTITLE17=Jongle a moi
EXTD=YEAR: 2001
EXTT0=
EXTT1=
EXTT2=
EXTT3=
EXTT4=
EXTT5=
EXTT6=
EXTT7=
EXTT8=
EXTT9=
EXTT10=
EXTT11=
EXTT12=
EXTT13=
EXTT14=
EXTT15=
EXTT16=
EXTT17=
PLAYORDER=
